PathFileType	4	(X/Y/Z)	TVC_60_BWA01_walk_RCNL2025.trc
DataRate	CameraRate	NumFrames	NumMarkers	Units	OrigDataRate	OrigDataStartFrame	OrigNumFrames
100	100	4	27	mm	100	337	384
Frame#	Time	R_Shoulder			L_Shoulder			C7			J_Notch			R_Elbow			L_Elbow			R_Wrist			L_Wrist			R_Asis			L_Asis			R_Psis			L_Psis			Sacral			Thoracic			Sternum			R_Thigh_Lateral			R_Knee_Lateral			R_Shank_Lateral			R_Ankle_Lateral			R_Heel			R_Toe			L_Thigh_Lateral			L_Knee_Lateral			L_Shank_Lateral			L_Ankle_Lateral			L_Heel			L_Toe		
		X1	Y1	Z1	X2	Y2	Z2	X3	Y3	Z3	X4	Y4	Z4	X5	Y5	Z5	X6	Y6	Z6	X7	Y7	Z7	X8	Y8	Z8	X9	Y9	Z9	X10	Y10	Z10	X11	Y11	Z11	X12	Y12	Z12	X13	Y13	Z13	X14	Y14	Z14	X15	Y15	Z15	X16	Y16	Z16	X17	Y17	Z17	X18	Y18	Z18	X19	Y19	Z19	X20	Y20	Z20	X21	Y21	Z21	X22	Y22	Z22	X23	Y23	Z23	X24	Y24	Z24	X25	Y25	Z25	X26	Y26	Z26	X27	Y27	Z27
337	3.36000000	1614.349121	1311.409546	8.038081	1600.799316	1332.164062	-346.043518	1548.395142	1383.253540	-170.869858	1663.993286	1259.204712	-174.992035	1507.557739	993.063843	85.939201	1615.407715	989.380371	-418.687683	1552.988831	762.034241	126.182453	1745.345581	796.279297	-456.685638	1658.391357	898.949097	-28.614111	1634.159546	901.493774	-314.079498	1477.644043	888.771118	-93.380264	1467.566772	894.129944	-202.781738	1472.605408	891.450531	-148.081001	1500.006958	1175.231079	-168.118607	1693.819336	1065.565552	-165.399521	1715.687866	604.090515	52.887257	1795.146362	462.212769	-19.610519	1827.187256	248.676270	16.194202	1848.838745	73.629417	-53.508034	1814.676636	60.034168	-107.639938	1977.375977	86.323433	-47.811001	1573.086060	614.731079	-358.065857	1552.695923	427.447540	-267.819305	1481.221191	245.319870	-284.816559	1417.431519	62.583981	-193.674835	1372.867188	71.211449	-151.318344	1541.908936	41.059856	-181.709457
338	3.37000000	1622.881592	1310.798340	8.437526	1607.784058	1331.341064	-345.624176	1556.176758	1382.514160	-170.245651	1671.687500	1258.366089	-174.824677	1513.682373	993.098938	85.946716	1622.942383	988.563110	-418.226166	1556.959778	761.649536	126.356899	1753.645691	795.943817	-456.271530	1666.410767	897.800842	-28.648005	1640.276123	900.774292	-314.146484	1485.262451	888.060364	-92.330048	1474.542358	893.603699	-201.606812	1479.902405	890.832031	-146.968430	1507.621704	1174.523804	-167.166092	1701.260010	1064.619507	-165.551498	1722.061890	602.409851	52.462975	1802.169922	461.356659	-20.484140	1840.510986	249.309830	15.839750	1867.312378	74.145470	-53.878120	1832.959106	59.396042	-107.464462	1996.067871	90.570671	-50.042419	1577.146484	614.444641	-358.064819	1555.630493	427.301270	-267.794525	1482.661011	245.766342	-284.626556	1417.708862	63.404377	-193.480484	1373.246826	72.360817	-151.080414	1541.967773	41.055515	-181.755859
339	3.38000000	1631.483154	1310.194092	8.885324	1614.816162	1330.535889	-345.154114	1564.011841	1381.790039	-169.569717	1679.451660	1257.556152	-174.612122	1519.993774	993.129272	86.013680	1630.367432	987.746338	-417.680359	1561.162170	761.282135	126.587215	1761.733948	795.543976	-455.796021	1674.546143	896.680054	-28.648344	1646.541748	900.075989	-314.167572	1493.012085	887.358887	-91.251511	1481.667480	893.086182	-200.389893	1487.339783	890.222534	-145.820702	1515.324707	1173.821533	-166.173706	1708.798096	1063.703003	-165.663559	1728.309326	600.520569	51.911034	1809.260254	460.483612	-21.400312	1853.216064	249.976776	15.437961	1884.250122	74.699516	-54.277050	1849.674805	58.919281	-107.339493	2013.195190	94.319801	-52.192097	1581.263184	614.217468	-358.048676	1558.701416	427.197021	-267.772003	1484.211548	246.288940	-284.463654	1418.021484	64.320045	-193.329025	1373.669556	73.634224	-150.916412	1542.036133	41.053078	-181.818710
340	3.39000000	1640.143066	1309.602051	9.382662	1621.903320	1329.756714	-344.633606	1571.900146	1381.087646	-168.844284	1687.287476	1256.783447	-174.351608	1526.492065	993.154968	86.141808	1637.686279	986.938110	-417.051819	1565.608215	760.934418	126.877399	1769.605225	795.082428	-455.261734	1682.800781	895.597778	-28.613131	1652.977661	899.399963	-314.139923	1500.898682	886.675842	-90.149879	1488.953491	892.583801	-199.138092	1494.926086	889.629822	-144.643986	1523.118652	1173.130005	-165.148087	1716.441528	1062.825684	-165.730392	1734.536377	598.491455	51.255760	1816.463257	459.608856	-22.350803	1865.187988	250.557266	14.939837	1899.495361	75.177673	-54.782978	1864.689575	58.525078	-107.378670	2028.595581	97.372589	-54.240494	1585.479980	614.046326	-358.020111	1561.930786	427.131012	-267.750854	1485.892578	246.885498	-284.332642	1418.374756	65.334679	-193.228104	1374.142212	75.038338	-150.829910	1542.114380	41.052891	-181.894287
